<svg xmlns="http://www.w3.org/2000/svg" xmlns:xlink="http://www.w3.org/1999/xlink" viewBox="0 0 932.03 852.89"><defs><style>.cls-1{fill:url(#linear-gradient);}.cls-2{fill:url(#linear-gradient-2);}.cls-3{fill:url(#linear-gradient-3);}.cls-4{font-size:116.84px;font-family:Montserrat-SemiBold, Montserrat;font-weight:600;}.cls-4,.cls-9{fill:#333;}.cls-5{letter-spacing:-0.01em;}.cls-6{letter-spacing:-0.02em;}.cls-7{letter-spacing:0em;}.cls-8{letter-spacing:-0.04em;}.cls-9{font-size:34.23px;font-family:OpenSans;letter-spacing:0.4em;}.cls-10{letter-spacing:0.4em;}.cls-11{letter-spacing:0.36em;}.cls-12{letter-spacing:0.38em;}.cls-13{letter-spacing:0.35em;}.cls-14{letter-spacing:0.32em;}.cls-15{letter-spacing:0.4em;}</style><linearGradient id="linear-gradient" x1="1274.5" y1="1150.55" x2="1274.5" y2="623.37" gradientTransform="translate(1192.24 -737.29) rotate(85.88)" gradientUnits="userSpaceOnUse"><stop offset="0" stop-color="#3bff95"/><stop offset="0.51" stop-color="#0ade7c"/><stop offset="1" stop-color="#05927d"/></linearGradient><linearGradient id="linear-gradient-2" x1="1062.88" y1="1048.26" x2="1062.88" y2="521.09" gradientTransform="translate(-78.56 -895) rotate(28.76)" gradientUnits="userSpaceOnUse"><stop offset="0" stop-color="red"/><stop offset="0.51" stop-color="#ed1e79"/><stop offset="1" stop-color="#f1c1df"/></linearGradient><linearGradient id="linear-gradient-3" x1="518.57" y1="1051.13" x2="518.57" y2="523.96" gradientTransform="matrix(0.79, -0.61, 0.61, 0.79, -150.51, 211.91)" gradientUnits="userSpaceOnUse"><stop offset="0" stop-color="#0071bc"/><stop offset="0.51" stop-color="#29abe2"/><stop offset="1" stop-color="#1b1464"/></linearGradient></defs><g id="Layer_2" data-name="Layer 2"><path class="cls-1" d="M309,663l.14.11s32.13-51.89,107.78-57.33,114.44,35.44,121.17,41.27c.06,0,.19,0,.23,0a86,86,0,1,0-8.53-118.48c0,.06-.17,0-.24.07-5.81,6.74-38.32,52.75-114,58.2s-114.88-41.31-114.88-41.31l-.12.14A86.07,86.07,0,1,0,309,663Z" transform="translate(-90.11 -45.23)"/><path class="cls-2" d="M481.64,415.48l.15,0s-26.13-55.17,10.38-121.64S584,216.91,592.6,214.44c.06,0,.08-.15.14-.17a86.08,86.08,0,1,0-104.09-57.16c0,.07-.12.14-.13.2,2.53,8.55,23.52,60.85-13,127.35s-97.07,74.07-97.07,74.07l0,.14a86.06,86.06,0,1,0,103.14,56.61Z" transform="translate(-90.11 -45.23)"/><path class="cls-3" d="M846.12,555.64l0-.18s-61,2-107.47-58S704.76,382.6,705.91,373.79c0-.08-.13-.14-.11-.2a86.06,86.06,0,1,0-93.9,72.74c.06,0,.13.13.19.15,8.83,1.09,65.15,2.69,111.56,62.64S753,627.65,753,627.65l.17,0a86.07,86.07,0,1,0,93-72Z" transform="translate(-90.11 -45.23)"/><text class="cls-4" transform="translate(0 782.08)">N<tspan class="cls-5" x="94.64" y="0">e</tspan><tspan x="165.56" y="0">xtGen</tspan><tspan class="cls-6" x="524.96" y="0">K</tspan><tspan class="cls-7" x="607.45" y="0">e</tspan><tspan class="cls-8" x="680.13" y="0">r</tspan><tspan x="724.17" y="0">ala </tspan></text><text class="cls-9" transform="translate(92.73 844.33) scale(0.9 1)">G<tspan class="cls-10" x="35.98" y="0">o Online</tspan><tspan class="cls-11" x="266.41" y="0"> </tspan><tspan class="cls-12" x="286.13" y="0">W</tspan><tspan class="cls-10" x="328.24" y="0">ith</tspan><tspan class="cls-13" x="407.66" y="0"> </tspan><tspan class="cls-14" x="427.03" y="0">Y</tspan><tspan class="cls-15" x="456.65" y="0">our Business</tspan></text></g></svg>